<svg id="Page_1" data-name="Page 1" xmlns="http://www.w3.org/2000/svg" viewBox="0 0 803.86 260.08"><defs><style>.cls-1,.cls-2{fill:#f58220;}.cls-2{fill-rule:evenodd;}</style></defs><path class="cls-1" d="M164.42,111.1q-16.28-22.3-41.1-31.37L160.22,16H78q-3.36,5.7-7,11.91t-7,12.25Q46.82,69,32.72,93.32L18.63,117.64a83.1,83.1,0,0,0-8.89,20.64A84.87,84.87,0,0,0,6.55,161.6q0,35.9,25.67,61.4t61.57,25.5q35.89,0,61.4-25.67t25.5-61.23A83.57,83.57,0,0,0,164.42,111.1ZM93.66,199.21A36.33,36.33,0,1,1,130,162.88,36.39,36.39,0,0,1,93.66,199.21Z"/><path class="cls-1" d="M341.07,213.63l6.14,23.82q-6.58,1.19-13.34,2.07a104.66,104.66,0,0,1-13.65.89,129.4,129.4,0,0,1-20.32-1.56,115.09,115.09,0,0,1-15.44-3.54,113.65,113.65,0,0,1-45.36-26.67q-33.73-31.77-33.73-76.4t33.73-76.4a114.4,114.4,0,0,1,40.56-25.09,110.72,110.72,0,0,1,14.56-4.08,127,127,0,0,1,26-2.6,104.66,104.66,0,0,1,13.65.89q6.75.88,13.34,2.36l-7.08,27.47L337.24,66l-3,11.73a63.09,63.09,0,0,0-15.66-2c-31.75,0-57.84,23.58-59.51,53.11-.06,1-.09,2-.09,3a52,52,0,0,0,.65,8.23c4.24,27,29.09,47.9,58.95,47.9A63.05,63.05,0,0,0,334,186.11l4.2,16.3Z"/><path class="cls-2" d="M473.3,132.24c0,7.71-5.88,13.95-13.15,13.95S447,140,447,132.24s5.89-14,13.15-14S473.3,124.53,473.3,132.24Z"/><path class="cls-2" d="M426.77,85.31a57.94,57.94,0,0,0-12.94,14.62L368.92,72.42A118.61,118.61,0,0,1,384.49,52a116.05,116.05,0,0,1,16.29-14.43Z"/><path class="cls-2" d="M408.86,109.87a61.25,61.25,0,0,0-4.09,19H353.06A115,115,0,0,1,363.7,82.22Z"/><path class="cls-2" d="M410.38,158.19l-45,27.55a113,113,0,0,1-12.14-45.62h51.92A60.89,60.89,0,0,0,410.38,158.19Z"/><path class="cls-2" d="M428.5,180.51l-25.94,47.67a114.75,114.75,0,0,1-18.07-15.68A120,120,0,0,1,371,195.33l45-27.58A57.22,57.22,0,0,0,428.5,180.51Z"/><path class="cls-2" d="M454.37,190.77v55a98,98,0,0,1-42.66-11.86l26-47.82A52.83,52.83,0,0,0,454.37,190.77Z"/><path class="cls-2" d="M507.84,234.27A98.12,98.12,0,0,1,465,245.77V190.86a52.37,52.37,0,0,0,16.82-4.46Z"/><path class="cls-2" d="M549.06,195.75a119.79,119.79,0,0,1-13.25,16.75,115.28,115.28,0,0,1-18.76,16.17L491.11,181A57.53,57.53,0,0,0,504,168.16Z"/><path class="cls-2" d="M567,140.12a112.65,112.65,0,0,1-12.38,46.06l-45-27.54a60.76,60.76,0,0,0,5.42-18.52Z"/><path class="cls-2" d="M567.24,128.87H515.53a61.54,61.54,0,0,0-4.27-19.48l45.13-27.63A115.06,115.06,0,0,1,567.24,128.87Z"/><path class="cls-2" d="M551.12,72,506.2,99.51a57.64,57.64,0,0,0-13.34-14.73l26-47.73a115.87,115.87,0,0,1,17,14.93A119.21,119.21,0,0,1,551.12,72Z"/><path class="cls-2" d="M509.74,31.25,483.74,79A52.38,52.38,0,0,0,465,73.62V18.71A98,98,0,0,1,509.74,31.25Z"/><path class="cls-2" d="M454.37,18.75v55a52.78,52.78,0,0,0-18.56,5.68l-26-47.73A97.8,97.8,0,0,1,454.37,18.75Z"/><path class="cls-2" d="M753.14,242.59H713.92L689.29,140.9q-3.4,13-6.89,25.78t-7,25.77q-3.55,13-7.05,25.61t-6.88,25.29l-28-102.45-19.61,81.48-2.72,11.33-2.14,8.88H569.69l7.69-29.5,2.92-11.21,16.1-61.76,2.93-11.25L622.1,41.51l4-15.45,1.29-4.93h12.52l2.21,8.11,19.28,70.81,21.35-78.92h12.49Z"/><path class="cls-2" d="M762.22,22.17a28.58,28.58,0,0,1,13.68,3.58A25.61,25.61,0,0,1,786.29,36a27.94,27.94,0,0,1,.05,27.77,25.8,25.8,0,0,1-10.28,10.3,27.91,27.91,0,0,1-27.67,0,25.93,25.93,0,0,1-10.31-10.3,27.87,27.87,0,0,1,0-27.77,25.74,25.74,0,0,1,10.42-10.29,28.54,28.54,0,0,1,13.67-3.58Zm0,4.6a23.72,23.72,0,0,0-11.41,3,21.65,21.65,0,0,0-8.68,8.58,23.11,23.11,0,0,0,0,23.14,21.85,21.85,0,0,0,8.61,8.6,23.14,23.14,0,0,0,23.07,0,21.71,21.71,0,0,0,8.58-8.6,23.24,23.24,0,0,0-.05-23.14,21.46,21.46,0,0,0-8.68-8.58,23.76,23.76,0,0,0-11.39-3ZM750,65.35V35.44H760.3a25.06,25.06,0,0,1,7.64.82,7.49,7.49,0,0,1,3.76,2.89,7.71,7.71,0,0,1,1.39,4.39,8,8,0,0,1-2.34,5.71A9.28,9.28,0,0,1,764.54,52a7.9,7.9,0,0,1,2.54,1.59,34,34,0,0,1,4.43,5.93l3.65,5.85h-5.9l-2.66-4.71c-2.09-3.7-3.76-6-5-7a6.21,6.21,0,0,0-3.88-1h-2.83v12.7Zm4.83-16.83h5.87c2.79,0,4.7-.43,5.72-1.26a4.3,4.3,0,0,0,.79-5.7,4.41,4.41,0,0,0-2-1.56,15.1,15.1,0,0,0-4.85-.51h-5.49v9Z"/></svg>