<svg width="720" height="720" viewBox="0 0 720 720" fill="none" xmlns="http://www.w3.org/2000/svg">
<rect width="720" height="720" rx="130" fill="#CC092F"/>
<path d="M359.969 627.906C507.93 627.906 627.875 507.961 627.875 360C627.875 212.039 507.93 92.0936 359.969 92.0936C212.008 92.0936 92.0625 212.039 92.0625 360C92.0625 507.961 212.008 627.906 359.969 627.906Z" fill="white"/>
<path d="M596.038 432.421C581.965 426.615 566.672 424.389 551.529 425.944C536.386 427.499 521.864 432.785 509.265 441.329L495.903 449.412C485.161 458.125 472.292 463.819 458.62 465.909C447.237 465.909 436.184 462.939 431.4 440.999C423.977 406.851 406.16 322.718 398.407 281.146C393.788 256.731 391.313 243.533 388.674 234.625C384.055 218.128 375.642 210.21 363.599 208.89H360.135H356.67C344.793 210.375 336.379 218.953 331.76 234.625C329.121 243.533 326.646 256.731 322.027 281.146C314.109 322.718 296.128 406.851 289.034 440.999C284.25 462.939 272.537 465.909 261.814 465.909C248.142 463.819 235.274 458.125 224.532 449.412L211.169 441.329C198.57 432.785 184.049 427.499 168.905 425.944C153.762 424.389 138.469 426.615 124.397 432.421C117.798 435.06 111.199 438.029 105.096 440.999C109.483 454.313 115.002 467.228 121.592 479.601C128.379 476.112 135.441 473.187 142.708 470.858C152.953 467.564 163.972 467.564 174.217 470.858C184.109 474.771 193.519 479.808 202.261 485.87C219.733 499.166 240.731 507.026 262.639 508.47C279.476 508.983 295.903 503.225 308.735 492.313C321.567 481.401 329.89 466.112 332.09 449.412C338.359 420.378 352.216 355.381 361.124 310.675C361.124 310.675 384.055 420.378 390.324 449.412C392.524 466.112 400.847 481.401 413.679 492.313C426.511 503.225 442.938 508.983 459.775 508.47C481.677 506.997 502.667 499.14 520.153 485.87C528.875 479.775 538.288 474.736 548.197 470.858C558.44 467.553 569.463 467.553 579.706 470.858C586.973 473.187 594.035 476.112 600.822 479.601C607.06 467.169 612.3 454.261 616.493 440.999C610.39 438.029 603.791 435.06 597.192 432.421" fill="#CC092F"/>
</svg>
